<svg width="70" height="70" viewBox="0 0 70 70" fill="none" xmlns="http://www.w3.org/2000/svg">
<g clip-path="url(#clip0_6708_148272)">
<path d="M20.2557 0.466797L13.755 10.1864L7.34859 0.466797H0V28.0369H6.6891V11.6817L11.1171 18.5042H16.2988L21.0094 11.4014V28.0369H27.6985V0.466797H20.2557Z" fill="#222D4A"/>
<path d="M18.9369 41.9629L13.7552 50.1872L8.66776 41.9629H0.753906L10.2693 57.3835V69.6265H17.0526V57.3835L26.945 41.9629H18.9369Z" fill="#00B2F2"/>
<path d="M55.5864 41.4961C47.6726 41.4961 41.1719 47.8512 41.1719 55.7951C41.1719 63.6456 47.5784 70.0942 55.5864 70.0942C63.5945 70.0942 70.001 63.7391 70.001 55.7951C70.001 47.9447 63.5003 41.4961 55.5864 41.4961ZM63.3119 55.7951C63.3119 60.0007 59.9202 63.3652 55.6806 63.3652C51.4411 63.3652 48.0494 60.0007 48.0494 55.7951C48.0494 51.5895 51.4411 48.225 55.6806 48.225C59.826 48.225 63.3119 51.5895 63.3119 55.7951Z" fill="#222D4A"/>
<path d="M55.5864 0C47.6726 0 41.1719 6.35514 41.1719 14.2991C41.1719 22.1495 47.5784 28.5981 55.5864 28.5981C63.5945 28.5981 70.001 22.243 70.001 14.2991C70.001 6.35514 63.5003 0 55.5864 0ZM63.3119 14.2991C63.3119 18.5047 59.9202 21.8692 55.6806 21.8692C51.4411 21.8692 48.0494 18.5047 48.0494 14.2991C48.0494 10.0935 51.4411 6.72897 55.6806 6.72897C59.826 6.63551 63.3119 10.0935 63.3119 14.2991Z" fill="#00B2F2"/>
</g>
<defs>
<clipPath id="clip0_6708_148272">
<rect width="70" height="70" fill="white"/>
</clipPath>
</defs>
</svg>
